Coordinates
version=1
nRows=13
nColumns=40
inDegrees=yes

Units are S.I. units (second, meters, Newtons, ...)
If the header above contains a line with 'inDegrees', this indicates whether rotational values are in degrees (yes) or radians (no).

endheader
time	pelvis_tilt	pelvis_list	pelvis_rotation	pelvis_tx	pelvis_ty	pelvis_tz	hip_flexion_r	hip_adduction_r	hip_rotation_r	knee_angle_r	knee_angle_r_beta	ankle_angle_r	subtalar_angle_r	mtp_angle_r	hip_flexion_l	hip_adduction_l	hip_rotation_l	knee_angle_l	knee_angle_l_beta	ankle_angle_l	subtalar_angle_l	mtp_angle_l	lumbar_extension	lumbar_bending	lumbar_rotation	arm_flex_r	arm_add_r	arm_rot_r	elbow_flex_r	pro_sup_r	wrist_flex_r	wrist_dev_r	arm_flex_l	arm_add_l	arm_rot_l	elbow_flex_l	pro_sup_l	wrist_flex_l	wrist_dev_l
      1.58000000	     -3.17093708	     -5.00287191	     89.77944265	      0.20316426	      0.89075295	      0.31500310	     29.35113421	     -5.07235305	      1.71806612	     -0.52590621	     -0.00917879	      1.92964476	     -0.00000000	     -0.00000000	    -13.75973810	      5.65929008	      6.56992735	      3.30525326	      0.05768755	     17.33525405	      0.00000000	     -0.00000000	     -4.91239164	     -4.80298035	     -9.44507728	     -0.00000000	     -0.00000000	     -0.00000000	      0.00000000	      0.00000000	      0.00000000	      0.00000000	      0.00000000	      0.00000000	      0.00000000	      0.00000000	      0.00000000	     -0.00000000	      0.00000000
      1.59000000	     -2.98632167	     -4.82422838	     89.78940359	      0.20458760	      0.88920523	      0.30364728	     29.08475323	     -4.66894178	      2.36721230	     -0.01067245	     -0.00018627	      0.79836659	      0.00000000	      0.00000000	    -14.51502725	      5.36126334	      6.67274740	      3.85394300	      0.06726399	     18.27375298	      0.00000000	      0.00000000	     -4.94526972	     -4.52853028	     -9.57614819	      0.00000000	      0.00000000	      0.00000000	      0.00000000	      0.00000000	      0.00000000	      0.00000000	      0.00000000	      0.00000000	      0.00000000	      0.00000000	      0.00000000	      0.00000000	      0.00000000
      1.60000000	     -2.81731962	     -4.82151368	     89.79296829	      0.20608682	      0.88752422	      0.29237673	     29.20298914	     -4.27990062	      2.77738099	      0.98058042	      0.01711436	     -0.31167143	      0.00000000	      0.00000000	    -14.96447192	      5.06607722	      6.53833495	      4.50759166	      0.07867232	     18.39164998	      0.00000000	      0.00000000	     -4.78719632	     -4.27816999	     -9.61394252	      0.00000000	      0.00000000	      0.00000000	      0.00000000	      0.00000000	      0.00000000	      0.00000000	      0.00000000	      0.00000000	      0.00000000	      0.00000000	      0.00000000	      0.00000000	      0.00000000
      1.61000000	     -2.65691102	     -4.85207198	     89.79050552	      0.20761374	      0.88598231	      0.28104639	     29.41799941	     -3.90293725	      3.28545591	      2.21342723	      0.03863159	     -1.24252932	      0.00000000	      0.00000000	    -15.30894290	      4.77636354	      6.42970431	      5.25601076	      0.09173469	     18.19303319	      0.00000000	      0.00000000	     -4.58285730	     -4.02590443	     -9.61226120	      0.00000000	      0.00000000	      0.00000000	      0.00000000	      0.00000000	      0.00000000	      0.00000000	      0.00000000	      0.00000000	      0.00000000	      0.00000000	      0.00000000	      0.00000000	      0.00000000
      1.62000000	     -2.40548923	     -4.83227270	     89.79329879	      0.20921162	      0.88469066	      0.26952865	     29.58796727	     -3.45160788	      3.37447524	      3.47211420	      0.06059982	     -2.99293519	      0.00000000	      0.00000000	    -15.60606022	      4.38450810	      6.19180760	      6.23217499	      0.10877197	     18.36912107	      0.00000000	      0.00000000	     -4.40220052	     -3.67254344	     -9.66977059	      0.00000000	      0.00000000	      0.00000000	      0.00000000	      0.00000000	      0.00000000	      0.00000000	      0.00000000	      0.00000000	      0.00000000	      0.00000000	      0.00000000	      0.00000000	      0.00000000
      1.63000000	     -2.16355824	     -4.82260784	     89.79071587	      0.21086616	      0.88359713	      0.25797960	     29.82363583	     -3.01587506	      3.54591641	      4.94188236	      0.08625212	     -4.34497782	     -0.00000000	     -0.00000000	    -15.80757080	      3.99179366	      5.95119637	      7.30480811	      0.12749295	     18.14735741	      0.00000000	      0.00000000	     -4.21625744	     -3.33345675	     -9.69554894	      0.00000000	     -0.00000000	     -0.00000000	      0.00000000	      0.00000000	      0.00000000	     -0.00000000	      0.00000000	      0.00000000	     -0.00000000	      0.00000000	      0.00000000	      0.00000000	     -0.00000000
      1.64000000	     -1.94102440	     -4.77273655	     89.78189235	      0.21259754	      0.88281414	      0.24635527	     29.96695527	     -2.58043514	      4.12973027	      6.46385016	      0.11281547	     -5.05313092	      0.00000000	      0.00000000	    -16.03426363	      3.62397469	      6.01636726	      8.36019227	      0.14591288	     17.54446348	      0.00000000	      0.00000000	     -4.07616942	     -3.03319735	     -9.61661611	      0.00000000	      0.00000000	      0.00000000	      0.00000000	      0.00000000	      0.00000000	      0.00000000	      0.00000000	      0.00000000	      0.00000000	      0.00000000	      0.00000000	      0.00000000	      0.00000000
      1.65000000	     -1.65776500	     -4.73198479	     89.78179844	      0.21430531	      0.88219914	      0.23471158	     30.30451342	     -2.16224912	      3.57913516	      8.27437989	      0.14441517	     -6.47477203	      0.00000000	      0.00000000	    -15.97662966	      3.14706798	      5.32437884	      9.88916445	      0.17259848	     17.15369181	      0.00000000	      0.00000000	     -3.90845074	     -2.63251754	     -9.74904095	      0.00000000	      0.00000000	      0.00000000	      0.00000000	      0.00000000	      0.00000000	      0.00000000	      0.00000000	      0.00000000	      0.00000000	      0.00000000	      0.00000000	      0.00000000	      0.00000000
      1.66000000	     -1.40568666	     -4.65831859	     89.77523025	      0.21607170	      0.88191368	      0.22305262	     30.52026626	     -1.75558132	      3.50921079	     10.06071164	      0.17559254	     -7.14475626	      0.00000000	     -0.00000000	    -15.90657959	      2.70424421	      4.94930240	     11.43983823	      0.19966284	     16.41593711	     -0.00000000	     -0.00000000	     -3.78815550	     -2.28636940	     -9.76914652	      0.00000000	      0.00000000	      0.00000000	      0.00000000	      0.00000000	     -0.00000000	      0.00000000	     -0.00000000	     -0.00000000	     -0.00000000	      0.00000000	      0.00000000	      0.00000000	      0.00000000
      1.67000000	     -1.16128526	     -4.60300963	     89.77171849	      0.21782727	      0.88186947	      0.21140598	     30.73784723	     -1.37487533	      3.38691424	     11.90398646	      0.20776376	     -7.37696245	      0.00000000	      0.00000000	    -15.67852247	      2.25006529	      4.53514646	     13.17320058	      0.22991572	     15.46990524	      0.00000000	      0.00000000	     -3.64591064	     -1.93822792	     -9.77251947	      0.00000000	      0.00000000	      0.00000000	      0.00000000	      0.00000000	      0.00000000	      0.00000000	      0.00000000	      0.00000000	      0.00000000	      0.00000000	      0.00000000	      0.00000000	      0.00000000
      1.68000000	     -0.93914531	     -4.48773486	     89.75975243	      0.21962694	      0.88217033	      0.19978631	     30.86149263	     -1.02273374	      3.19338132	     13.77228111	      0.24037165	     -7.19512650	      0.00000000	      0.00000000	    -15.36911599	      1.79127374	      4.02840110	     15.09099066	      0.26338747	     14.26105921	      0.00000000	      0.00000000	     -3.56964493	     -1.63013656	     -9.80362317	      0.00000000	      0.00000000	      0.00000000	      0.00000000	      0.00000000	      0.00000000	      0.00000000	      0.00000000	      0.00000000	      0.00000000	      0.00000000	      0.00000000	      0.00000000	      0.00000000
      1.69000000	     -0.73570623	     -4.35128257	     89.75050121	      0.22139025	      0.88275381	      0.18822454	     30.88256396	     -0.70004981	      3.02217427	     15.57789724	      0.27188560	     -6.61293678	      0.00000000	      0.00000000	    -14.94008584	      1.33229472	      3.48220676	     17.18493922	      0.29993377	     12.82953677	      0.00000000	      0.00000000	     -3.52830389	     -1.34482925	     -9.81744792	      0.00000000	      0.00000000	      0.00000000	      0.00000000	      0.00000000	      0.00000000	      0.00000000	      0.00000000	      0.00000000	      0.00000000	      0.00000000	      0.00000000	      0.00000000	      0.00000000
      1.70000000	     -0.55453688	     -4.18924174	     89.73872886	      0.22320817	      0.88365526	      0.17677494	     30.78168175	     -0.39529362	      2.87102526	     17.26172874	      0.30127400	     -5.70350857	      0.00000000	      0.00000000	    -14.38695518	      0.86165673	      2.92353225	     19.45794508	      0.33960521	     11.19067337	      0.00000000	      0.00000000	     -3.52591606	     -1.09004040	     -9.82151808	      0.00000000	      0.00000000	      0.00000000	      0.00000000	      0.00000000	      0.00000000	      0.00000000	      0.00000000	      0.00000000	      0.00000000	      0.00000000	      0.00000000	      0.00000000	      0.00000000
